<svg width="43" height="43" viewBox="0 0 43 43" fill="none" xmlns="http://www.w3.org/2000/svg">
<g clip-path="url(#clip0_279_13260)">
<path d="M17.3479 31.0381L17.9957 30.2163L17.3479 31.0381ZM21.5872 12.3265L20.8333 13.0522C21.0305 13.2572 21.3028 13.373 21.5872 13.373C21.8717 13.373 22.1439 13.2572 22.3412 13.0522L21.5872 12.3265ZM25.8266 31.0381L26.4745 31.8599L25.8266 31.0381ZM17.9957 30.2163C15.8809 28.5491 13.5684 26.921 11.7339 24.8553C9.93522 22.8299 8.68052 20.4666 8.68052 17.4005H6.58754C6.58754 21.1198 8.13704 23.9571 10.1689 26.2451C12.165 28.4926 14.7094 30.2907 16.7 31.8599L17.9957 30.2163ZM8.68052 17.4005C8.68052 14.3994 10.3764 11.8826 12.6912 10.8245C14.94 9.79657 17.9617 10.0688 20.8333 13.0522L22.3412 11.6008C18.934 8.06085 14.9791 7.47742 11.8211 8.92098C8.72896 10.3344 6.58754 13.6163 6.58754 17.4005H8.68052ZM16.7 31.8599C17.4147 32.4234 18.182 33.0242 18.9596 33.4786C19.7368 33.9328 20.6239 34.3019 21.5872 34.3019V32.2089C21.1552 32.2089 20.647 32.0405 20.0156 31.6715C19.3845 31.3027 18.7297 30.7949 17.9957 30.2163L16.7 31.8599ZM26.4745 31.8599C28.4651 30.2907 31.0095 28.4926 33.0055 26.2451C35.0374 23.9571 36.5869 21.1198 36.5869 17.4005H34.494C34.494 20.4666 33.2393 22.8299 31.4406 24.8553C29.6061 26.921 27.2936 28.5491 25.1787 30.2163L26.4745 31.8599ZM36.5869 17.4005C36.5869 13.6163 34.4455 10.3344 31.3534 8.92098C28.1953 7.47742 24.2404 8.06085 20.8333 11.6008L22.3412 13.0522C25.2128 10.0688 28.2345 9.79657 30.4833 10.8245C32.7981 11.8826 34.494 14.3994 34.494 17.4005H36.5869ZM25.1787 30.2163C24.4447 30.7949 23.79 31.3027 23.1589 31.6715C22.5275 32.0405 22.0192 32.2089 21.5872 32.2089V34.3019C22.5506 34.3019 23.4376 33.9327 24.2149 33.4786C24.9925 33.0242 25.7597 32.4234 26.4745 31.8599L25.1787 30.2163Z" fill="#35155A"/>
<path d="M17.3244 30.9256L17.945 30.1415L17.3244 30.9256ZM21.5638 12.1421L20.842 12.8342C21.0306 13.0309 21.2913 13.1421 21.5638 13.1421C21.8363 13.1421 22.097 13.0309 22.2856 12.8342L21.5638 12.1421ZM25.8032 30.9256L26.4237 31.7098L25.8032 30.9256ZM17.945 30.1415C15.833 28.4702 13.5152 26.8319 11.6769 24.754C9.87293 22.7148 8.6106 20.3305 8.6106 17.2356H6.6106C6.6106 20.9522 8.15246 23.7885 10.179 26.0792C12.1713 28.3312 14.7104 30.1323 16.7039 31.7098L17.945 30.1415ZM8.6106 17.2356C8.6106 14.2019 10.3183 11.6576 12.6497 10.5878C14.917 9.54742 17.9582 9.82648 20.842 12.8342L22.2856 11.45C18.8907 7.90929 14.9552 7.32939 11.8156 8.77003C8.74011 10.1813 6.6106 13.4579 6.6106 17.2356H8.6106ZM16.7039 31.7098C17.419 32.2757 18.1838 32.8768 18.9582 33.331C19.7321 33.785 20.6113 34.1515 21.5638 34.1515V32.1515C21.121 32.1515 20.6048 31.9783 19.9701 31.6059C19.3358 31.2339 18.6786 30.722 17.945 30.1415L16.7039 31.7098ZM26.4237 31.7098C28.4172 30.1323 30.9563 28.3312 32.9486 26.0792C34.9751 23.7885 36.517 20.9522 36.517 17.2356H34.517C34.517 20.3305 33.2547 22.7148 31.4507 24.754C29.6124 26.8319 27.2946 28.4702 25.1826 30.1415L26.4237 31.7098ZM36.517 17.2356C36.517 13.4579 34.3875 10.1813 31.312 8.77003C28.1724 7.32939 24.2369 7.90929 20.842 11.45L22.2856 12.8342C25.1694 9.82648 28.2106 9.54742 30.4779 10.5878C32.8093 11.6576 34.517 14.2019 34.517 17.2356H36.517ZM25.1826 30.1415C24.449 30.722 23.7918 31.2339 23.1575 31.6059C22.5228 31.9783 22.0066 32.1515 21.5638 32.1515V34.1515C22.5163 34.1515 23.3955 33.785 24.1694 33.331C24.9438 32.8768 25.7086 32.2757 26.4237 31.7098L25.1826 30.1415Z" fill="#35155A"/>
</g>
<defs>
<clipPath id="clip0_279_13260">
<rect x="0.634033" y="0.234863" width="41.8596" height="42.0206" rx="6.9766" fill="white"/>
</clipPath>
</defs>
</svg>
