<svg width="42" height="42" viewBox="0 0 42 42" fill="none" xmlns="http://www.w3.org/2000/svg">
<path d="M16.4451 10.6985C18.4717 7.06292 19.485 5.24512 21 5.24512C22.515 5.24512 23.5283 7.06292 25.5549 10.6985L26.0793 11.6391C26.6552 12.6722 26.9431 13.1888 27.3921 13.5296C27.8411 13.8704 28.4002 13.997 29.5186 14.25L30.5367 14.4804C34.4722 15.3708 36.44 15.816 36.9081 17.3215C37.3763 18.8269 36.0348 20.3956 33.3518 23.533L32.6577 24.3447C31.8953 25.2362 31.5141 25.682 31.3426 26.2335C31.1711 26.7849 31.2288 27.3797 31.344 28.5692L31.449 29.6521C31.8546 33.8381 32.0574 35.931 30.8318 36.8615C29.6061 37.7919 27.7637 36.9436 24.0789 35.247L23.1256 34.8081C22.0785 34.3259 21.555 34.0849 21 34.0849C20.445 34.0849 19.9215 34.3259 18.8744 34.8081L17.9211 35.247C14.2363 36.9436 12.3939 37.7919 11.1682 36.8615C9.94259 35.931 10.1454 33.8381 10.551 29.6522L10.656 28.5692C10.7712 27.3797 10.8289 26.7849 10.6574 26.2335C10.4859 25.682 10.1047 25.2362 9.34227 24.3447L8.64816 23.533C5.9652 20.3956 4.62372 18.8269 5.09187 17.3215C5.56003 15.816 7.52777 15.3708 11.4633 14.4804L12.4814 14.25C13.5998 13.997 14.1589 13.8704 14.6079 13.5296C15.0569 13.1888 15.3448 12.6722 15.9207 11.6391L16.4451 10.6985Z" stroke="#35155A" stroke-width="1.5"/>
</svg>
