<svg width="197" height="38" viewBox="0 0 197 38" fill="none" xmlns="http://www.w3.org/2000/svg">
<path d="M16.7615 4.83458C17.5049 3.22274 19.7958 3.22274 20.5392 4.83458L23.3859 11.0062C23.6889 11.6631 24.3115 12.1154 25.0299 12.2006L31.7791 13.0008C33.5417 13.2098 34.2496 15.3885 32.9464 16.5936L27.9566 21.2081C27.4255 21.6993 27.1877 22.4311 27.3287 23.1407L28.6532 29.8069C28.9991 31.5479 27.1458 32.8944 25.5969 32.0274L19.6664 28.7077C19.0351 28.3543 18.2656 28.3543 17.6343 28.7077L11.7038 32.0274C10.1549 32.8944 8.30156 31.5479 8.64749 29.8069L9.97205 23.1407C10.113 22.4311 9.87524 21.6993 9.34411 21.2081L4.35426 16.5936C3.05106 15.3885 3.75896 13.2098 5.52165 13.0008L12.2708 12.2006C12.9892 12.1154 13.6118 11.6631 13.9148 11.0062L16.7615 4.83458Z" fill="#EE634B"/>
<path d="M56.551 4.83455C57.2945 3.22271 59.5853 3.22271 60.3288 4.83455L63.1755 11.0061C63.4785 11.663 64.101 12.1154 64.8194 12.2005L71.5686 13.0008C73.3313 13.2098 74.0392 15.3885 72.736 16.5936L67.7461 21.2081C67.215 21.6993 66.9772 22.4311 67.1182 23.1407L68.4428 29.8068C68.7887 31.5478 66.9354 32.8943 65.3865 32.0273L59.4559 28.7077C58.8247 28.3543 58.0551 28.3543 57.4239 28.7077L51.4933 32.0273C49.9444 32.8943 48.0911 31.5478 48.437 29.8068L49.7616 23.1407C49.9026 22.4311 49.6648 21.6993 49.1337 21.2081L44.1438 16.5936C42.8406 15.3885 43.5485 13.2098 45.3112 13.0008L52.0604 12.2005C52.7788 12.1154 53.4013 11.663 53.7044 11.0061L56.551 4.83455Z" fill="#EE634B"/>
<path d="M96.3405 4.83455C97.0839 3.22271 99.3747 3.22271 100.118 4.83455L102.965 11.0061C103.268 11.663 103.89 12.1154 104.609 12.2005L111.358 13.0008C113.121 13.2098 113.829 15.3885 112.525 16.5936L107.536 21.2081C107.004 21.6993 106.767 22.4311 106.908 23.1407L108.232 29.8068C108.578 31.5478 106.725 32.8943 105.176 32.0273L99.2454 28.7077C98.6141 28.3543 97.8446 28.3543 97.2133 28.7077L91.2827 32.0273C89.7338 32.8943 87.8805 31.5478 88.2265 29.8068L89.551 23.1407C89.692 22.4311 89.4542 21.6993 88.9231 21.2081L83.9332 16.5936C82.63 15.3885 83.3379 13.2098 85.1006 13.0008L91.8498 12.2005C92.5682 12.1154 93.1908 11.663 93.4938 11.0061L96.3405 4.83455Z" fill="#EE634B"/>
<path d="M136.13 4.83455C136.873 3.22271 139.164 3.22271 139.908 4.83455L142.754 11.0061C143.057 11.663 143.68 12.1154 144.398 12.2005L151.148 13.0008C152.91 13.2098 153.618 15.3885 152.315 16.5936L147.325 21.2081C146.794 21.6993 146.556 22.4311 146.697 23.1407L148.022 29.8068C148.368 31.5478 146.514 32.8943 144.965 32.0273L139.035 28.7077C138.404 28.3543 137.634 28.3543 137.003 28.7077L131.072 32.0273C129.523 32.8943 127.67 31.5478 128.016 29.8068L129.341 23.1407C129.482 22.4311 129.244 21.6993 128.713 21.2081L123.723 16.5936C122.42 15.3885 123.127 13.2098 124.89 13.0008L131.639 12.2005C132.358 12.1154 132.98 11.663 133.283 11.0061L136.13 4.83455Z" fill="#EE634B"/>
<path d="M176.13 4.83455C176.873 3.22271 179.164 3.22271 179.908 4.83455L182.754 11.0061C183.057 11.663 183.68 12.1154 184.398 12.2005L191.148 13.0008C192.91 13.2098 193.618 15.3885 192.315 16.5936L187.325 21.2081C186.794 21.6993 186.556 22.4311 186.697 23.1407L188.022 29.8068C188.368 31.5478 186.514 32.8943 184.965 32.0273L179.035 28.7077C178.404 28.3543 177.634 28.3543 177.003 28.7077L171.072 32.0273C169.523 32.8943 167.67 31.5478 168.016 29.8068L169.341 23.1407C169.482 22.4311 169.244 21.6993 168.713 21.2081L163.723 16.5936C162.42 15.3885 163.127 13.2098 164.89 13.0008L171.639 12.2005C172.358 12.1154 172.98 11.663 173.283 11.0061L176.13 4.83455Z" fill="#EE634B"/>
</svg>
