<svg width="38" height="42" viewBox="0 0 38 42" fill="none" xmlns="http://www.w3.org/2000/svg">
<path d="M27.3327 38.9828C31.697 38.9828 35.235 31.0414 35.235 21.2452C35.235 11.449 31.697 3.50757 27.3327 3.50757" stroke="#35155A" stroke-width="2"/>
<path d="M19.4311 21.2452C19.4311 31.0414 15.8932 38.9828 11.5289 38.9828C7.16455 38.9828 3.62659 31.0414 3.62659 21.2452C3.62659 11.449 7.16455 3.50757 11.5289 3.50757C15.8932 3.50757 19.4311 11.449 19.4311 21.2452Z" stroke="#35155A" stroke-width="2"/>
<path d="M11.5309 38.9828C15.8952 38.9828 19.4332 31.0414 19.4332 21.2452C19.4332 11.449 15.8952 3.50757 11.5309 3.50757" stroke="#35155A" stroke-width="2"/>
<path d="M14.1643 21.2451C14.1643 27.1228 12.985 31.8876 11.5302 31.8876C10.0754 31.8876 8.89612 27.1228 8.89612 21.2451C8.89612 15.3674 10.0754 10.6025 11.5302 10.6025C12.985 10.6025 14.1643 15.3674 14.1643 21.2451Z" stroke="#35155A" stroke-width="2"/>
<path d="M11.5309 3.50757L27.3354 3.50757" stroke="#35155A" stroke-width="2"/>
<path d="M11.5309 38.9827L27.3354 38.9827" stroke="#35155A" stroke-width="2"/>
<path d="M14.1641 21.2451H12.408" stroke="#35155A" stroke-width="2" stroke-linecap="round"/>
</svg>
